<svg width="320" height="169" viewBox="0 0 320 169" fill="none" xmlns="http://www.w3.org/2000/svg">
<g filter="url(#filter0_f_1_277)">
<rect x="54.0857" y="54.0664" width="211.829" height="60" rx="10" fill="#F53838" fill-opacity="0.35"/>
</g>
<rect x="35" y="28.7754" width="250" height="60" rx="10" fill="#F53838"/>
<path d="M105.328 64.4354C104.293 64.4354 103.413 64.2861 102.688 63.9874C101.963 63.6887 101.413 63.2941 101.04 62.8034C100.667 62.3127 100.469 61.7794 100.448 61.2034C100.448 61.1074 100.48 61.0274 100.544 60.9634C100.619 60.8994 100.704 60.8674 100.8 60.8674H102.928C103.056 60.8674 103.157 60.8887 103.232 60.9314C103.317 60.9741 103.408 61.0487 103.504 61.1554C103.643 61.4114 103.856 61.6247 104.144 61.7954C104.443 61.9554 104.837 62.0354 105.328 62.0354C105.904 62.0354 106.347 61.9501 106.656 61.7794C106.965 61.5981 107.12 61.3527 107.12 61.0434C107.12 60.8194 107.04 60.6381 106.88 60.4994C106.72 60.3501 106.464 60.2221 106.112 60.1154C105.76 59.9981 105.253 59.8701 104.592 59.7314C103.301 59.4754 102.336 59.0861 101.696 58.5634C101.056 58.0407 100.736 57.2941 100.736 56.3234C100.736 55.6621 100.917 55.0754 101.28 54.5634C101.653 54.0407 102.176 53.6354 102.848 53.3474C103.531 53.0594 104.32 52.9154 105.216 52.9154C106.155 52.9154 106.965 53.0807 107.648 53.4114C108.341 53.7314 108.869 54.1367 109.232 54.6274C109.605 55.1074 109.803 55.5821 109.824 56.0514C109.824 56.1474 109.792 56.2327 109.728 56.3074C109.664 56.3714 109.584 56.4034 109.488 56.4034H107.248C107.013 56.4034 106.832 56.3074 106.704 56.1154C106.64 55.8914 106.475 55.7047 106.208 55.5554C105.941 55.3954 105.611 55.3154 105.216 55.3154C104.768 55.3154 104.421 55.3954 104.176 55.5554C103.931 55.7154 103.808 55.9501 103.808 56.2594C103.808 56.5687 103.968 56.8141 104.288 56.9954C104.608 57.1661 105.205 57.3421 106.08 57.5234C107.083 57.7047 107.877 57.9341 108.464 58.2114C109.061 58.4781 109.499 58.8301 109.776 59.2674C110.064 59.6941 110.208 60.2381 110.208 60.8994C110.208 61.6247 110 62.2541 109.584 62.7874C109.168 63.3207 108.592 63.7314 107.856 64.0194C107.12 64.2967 106.277 64.4354 105.328 64.4354ZM114.624 64.4354C113.686 64.4354 112.928 64.1207 112.352 63.4914C111.776 62.8621 111.488 61.9714 111.488 60.8194V56.3554C111.488 56.2381 111.526 56.1421 111.6 56.0674C111.686 55.9927 111.782 55.9554 111.888 55.9554H114.016C114.134 55.9554 114.23 55.9927 114.304 56.0674C114.39 56.1421 114.432 56.2381 114.432 56.3554V60.7234C114.432 61.7154 114.875 62.2114 115.76 62.2114C116.187 62.2114 116.518 62.0834 116.752 61.8274C116.998 61.5607 117.12 61.1927 117.12 60.7234V56.3554C117.12 56.2381 117.158 56.1421 117.232 56.0674C117.318 55.9927 117.419 55.9554 117.536 55.9554H119.648C119.766 55.9554 119.862 55.9927 119.936 56.0674C120.011 56.1421 120.048 56.2381 120.048 56.3554V63.8754C120.048 63.9821 120.011 64.0781 119.936 64.1634C119.862 64.2381 119.766 64.2754 119.648 64.2754H117.696C117.579 64.2754 117.478 64.2381 117.392 64.1634C117.318 64.0887 117.28 63.9927 117.28 63.8754V63.2674C116.726 64.0461 115.84 64.4354 114.624 64.4354ZM127.065 64.4354C125.988 64.4354 125.161 64.0834 124.585 63.3794V63.8754C124.585 63.9821 124.548 64.0781 124.473 64.1634C124.398 64.2381 124.302 64.2754 124.185 64.2754H122.281C122.164 64.2754 122.062 64.2381 121.977 64.1634C121.902 64.0887 121.865 63.9927 121.865 63.8754V53.3154C121.865 53.1981 121.902 53.1021 121.977 53.0274C122.062 52.9527 122.164 52.9154 122.281 52.9154H124.345C124.462 52.9154 124.558 52.9527 124.633 53.0274C124.708 53.1021 124.745 53.1981 124.745 53.3154V56.7234C125.332 56.1047 126.105 55.7954 127.065 55.7954C128.089 55.7954 128.9 56.1314 129.497 56.8034C130.094 57.4647 130.414 58.3767 130.457 59.5394C130.468 59.6781 130.473 59.8701 130.473 60.1154C130.473 60.3501 130.468 60.5367 130.457 60.6754C130.414 61.8807 130.094 62.8087 129.497 63.4594C128.91 64.1101 128.1 64.4354 127.065 64.4354ZM126.137 62.2114C126.617 62.2114 126.958 62.0727 127.161 61.7954C127.374 61.5074 127.497 61.1127 127.529 60.6114C127.54 60.5047 127.545 60.3394 127.545 60.1154C127.545 59.8914 127.54 59.7261 127.529 59.6194C127.497 59.1181 127.374 58.7287 127.161 58.4514C126.958 58.1634 126.617 58.0194 126.137 58.0194C125.689 58.0194 125.348 58.1581 125.113 58.4354C124.889 58.7021 124.766 59.0434 124.745 59.4594C124.734 59.5981 124.729 59.7954 124.729 60.0514C124.729 60.3074 124.734 60.5101 124.745 60.6594C124.766 61.1074 124.889 61.4807 125.113 61.7794C125.337 62.0674 125.678 62.2114 126.137 62.2114ZM135.494 64.4354C134.619 64.4354 133.888 64.3127 133.302 64.0674C132.715 63.8221 132.278 63.5287 131.99 63.1874C131.712 62.8461 131.574 62.5367 131.574 62.2594C131.574 62.1527 131.611 62.0674 131.686 62.0034C131.771 61.9287 131.862 61.8914 131.958 61.8914H133.894C133.958 61.8914 134.011 61.9127 134.054 61.9554C134.235 62.0727 134.336 62.1421 134.358 62.1634C134.56 62.3127 134.747 62.4301 134.918 62.5154C135.099 62.5901 135.312 62.6274 135.558 62.6274C135.846 62.6274 136.08 62.5741 136.262 62.4674C136.454 62.3501 136.55 62.1901 136.55 61.9874C136.55 61.8167 136.496 61.6781 136.39 61.5714C136.294 61.4647 136.102 61.3634 135.814 61.2674C135.536 61.1607 135.11 61.0541 134.534 60.9474C132.688 60.5741 131.766 59.7207 131.766 58.3874C131.766 57.9501 131.904 57.5341 132.182 57.1394C132.47 56.7341 132.886 56.4087 133.43 56.1634C133.984 55.9181 134.646 55.7954 135.414 55.7954C136.192 55.7954 136.864 55.9181 137.43 56.1634C138.006 56.3981 138.443 56.6861 138.742 57.0274C139.04 57.3581 139.19 57.6621 139.19 57.9394C139.19 58.0354 139.152 58.1207 139.078 58.1954C139.014 58.2701 138.934 58.3074 138.838 58.3074H137.078C136.982 58.3074 136.907 58.2861 136.854 58.2434C136.726 58.1794 136.598 58.0994 136.47 58.0034C136.278 57.8754 136.107 57.7794 135.958 57.7154C135.819 57.6407 135.638 57.6034 135.414 57.6034C135.147 57.6034 134.939 57.6621 134.79 57.7794C134.64 57.8967 134.566 58.0461 134.566 58.2274C134.566 58.3874 134.608 58.5207 134.694 58.6274C134.79 58.7234 134.976 58.8194 135.254 58.9154C135.542 59.0114 135.974 59.1127 136.55 59.2194C137.595 59.4007 138.352 59.7261 138.822 60.1954C139.302 60.6541 139.542 61.1927 139.542 61.8114C139.542 62.6114 139.184 63.2514 138.47 63.7314C137.766 64.2007 136.774 64.4354 135.494 64.4354ZM144.784 64.4354C143.568 64.4354 142.581 64.1154 141.824 63.4754C141.077 62.8247 140.677 61.9234 140.624 60.7714L140.608 60.1314L140.624 59.4754C140.667 58.3234 141.067 57.4221 141.824 56.7714C142.581 56.1207 143.568 55.7954 144.784 55.7954C145.712 55.7954 146.491 55.9607 147.12 56.2914C147.749 56.6221 148.219 57.0167 148.528 57.4754C148.837 57.9234 149.003 58.3341 149.024 58.7074C149.035 58.8247 148.997 58.9261 148.912 59.0114C148.827 59.0861 148.725 59.1234 148.608 59.1234H146.464C146.347 59.1234 146.256 59.0967 146.192 59.0434C146.128 58.9901 146.069 58.9047 146.016 58.7874C145.899 58.4887 145.744 58.2701 145.552 58.1314C145.371 57.9927 145.136 57.9234 144.848 57.9234C144.027 57.9234 143.6 58.4674 143.568 59.5554L143.552 60.1634L143.568 60.6914C143.579 61.2461 143.691 61.6567 143.904 61.9234C144.117 62.1794 144.432 62.3074 144.848 62.3074C145.157 62.3074 145.397 62.2434 145.568 62.1154C145.749 61.9767 145.899 61.7527 146.016 61.4434C146.069 61.3261 146.128 61.2407 146.192 61.1874C146.256 61.1341 146.347 61.1074 146.464 61.1074H148.608C148.715 61.1074 148.811 61.1447 148.896 61.2194C148.981 61.2941 149.024 61.3847 149.024 61.4914C149.024 61.8221 148.875 62.2221 148.576 62.6914C148.288 63.1501 147.824 63.5554 147.184 63.9074C146.544 64.2594 145.744 64.4354 144.784 64.4354ZM150.796 64.2754C150.69 64.2754 150.594 64.2381 150.508 64.1634C150.434 64.0781 150.396 63.9821 150.396 63.8754V56.3714C150.396 56.2541 150.434 56.1581 150.508 56.0834C150.583 55.9981 150.679 55.9554 150.796 55.9554H152.748C152.866 55.9554 152.962 55.9981 153.036 56.0834C153.122 56.1581 153.164 56.2541 153.164 56.3714V56.9794C153.463 56.6487 153.81 56.3981 154.204 56.2274C154.61 56.0461 155.058 55.9554 155.548 55.9554H156.268C156.386 55.9554 156.482 55.9927 156.556 56.0674C156.631 56.1421 156.668 56.2381 156.668 56.3554V58.0994C156.668 58.2061 156.631 58.3021 156.556 58.3874C156.482 58.4621 156.386 58.4994 156.268 58.4994H154.652C154.226 58.4994 153.895 58.6167 153.66 58.8514C153.436 59.0861 153.324 59.4167 153.324 59.8434V63.8754C153.324 63.9927 153.282 64.0887 153.196 64.1634C153.122 64.2381 153.026 64.2754 152.908 64.2754H150.796ZM158.171 54.8034C158.054 54.8034 157.958 54.7661 157.883 54.6914C157.809 54.6061 157.771 54.5047 157.771 54.3874V52.8994C157.771 52.7821 157.809 52.6861 157.883 52.6114C157.969 52.5261 158.065 52.4834 158.171 52.4834H160.171C160.289 52.4834 160.385 52.5261 160.459 52.6114C160.545 52.6861 160.587 52.7821 160.587 52.8994V54.3874C160.587 54.5047 160.545 54.6061 160.459 54.6914C160.385 54.7661 160.289 54.8034 160.171 54.8034H158.171ZM158.171 64.2754C158.065 64.2754 157.969 64.2381 157.883 64.1634C157.809 64.0781 157.771 63.9821 157.771 63.8754V56.3554C157.771 56.2381 157.809 56.1421 157.883 56.0674C157.969 55.9927 158.065 55.9554 158.171 55.9554H160.171C160.289 55.9554 160.385 55.9927 160.459 56.0674C160.545 56.1421 160.587 56.2381 160.587 56.3554V63.8754C160.587 63.9927 160.545 64.0887 160.459 64.1634C160.385 64.2381 160.289 64.2754 160.171 64.2754H158.171ZM167.612 64.4354C166.535 64.4354 165.708 64.0834 165.132 63.3794V63.8754C165.132 63.9821 165.095 64.0781 165.02 64.1634C164.945 64.2381 164.849 64.2754 164.732 64.2754H162.828C162.711 64.2754 162.609 64.2381 162.524 64.1634C162.449 64.0887 162.412 63.9927 162.412 63.8754V53.3154C162.412 53.1981 162.449 53.1021 162.524 53.0274C162.609 52.9527 162.711 52.9154 162.828 52.9154H164.892C165.009 52.9154 165.105 52.9527 165.18 53.0274C165.255 53.1021 165.292 53.1981 165.292 53.3154V56.7234C165.879 56.1047 166.652 55.7954 167.612 55.7954C168.636 55.7954 169.447 56.1314 170.044 56.8034C170.641 57.4647 170.961 58.3767 171.004 59.5394C171.015 59.6781 171.02 59.8701 171.02 60.1154C171.02 60.3501 171.015 60.5367 171.004 60.6754C170.961 61.8807 170.641 62.8087 170.044 63.4594C169.457 64.1101 168.647 64.4354 167.612 64.4354ZM166.684 62.2114C167.164 62.2114 167.505 62.0727 167.708 61.7954C167.921 61.5074 168.044 61.1127 168.076 60.6114C168.087 60.5047 168.092 60.3394 168.092 60.1154C168.092 59.8914 168.087 59.7261 168.076 59.6194C168.044 59.1181 167.921 58.7287 167.708 58.4514C167.505 58.1634 167.164 58.0194 166.684 58.0194C166.236 58.0194 165.895 58.1581 165.66 58.4354C165.436 58.7021 165.313 59.0434 165.292 59.4594C165.281 59.5981 165.276 59.7954 165.276 60.0514C165.276 60.3074 165.281 60.5101 165.292 60.6594C165.313 61.1074 165.436 61.4807 165.66 61.7794C165.884 62.0674 166.225 62.2114 166.684 62.2114ZM176.457 64.4354C175.155 64.4354 174.131 64.0887 173.385 63.3954C172.638 62.6914 172.254 61.6727 172.233 60.3394V59.8434C172.275 58.5741 172.67 57.5821 173.417 56.8674C174.163 56.1527 175.171 55.7954 176.441 55.7954C177.358 55.7954 178.131 55.9821 178.761 56.3554C179.401 56.7181 179.875 57.2247 180.185 57.8754C180.505 58.5154 180.665 59.2461 180.665 60.0674V60.4674C180.665 60.5847 180.622 60.6861 180.537 60.7714C180.462 60.8461 180.366 60.8834 180.249 60.8834H175.177V60.9794C175.187 61.4594 175.299 61.8487 175.513 62.1474C175.726 62.4354 176.03 62.5794 176.425 62.5794C176.681 62.5794 176.883 62.5314 177.033 62.4354C177.193 62.3287 177.342 62.1954 177.481 62.0354C177.577 61.9287 177.651 61.8647 177.705 61.8434C177.769 61.8114 177.865 61.7954 177.993 61.7954H180.089C180.185 61.7954 180.265 61.8274 180.329 61.8914C180.403 61.9447 180.441 62.0141 180.441 62.0994C180.441 62.3767 180.281 62.7021 179.961 63.0754C179.651 63.4487 179.193 63.7687 178.585 64.0354C177.987 64.3021 177.278 64.4354 176.457 64.4354ZM177.721 59.2514V59.2194C177.721 58.7074 177.609 58.3127 177.385 58.0354C177.161 57.7474 176.846 57.6034 176.441 57.6034C176.035 57.6034 175.721 57.7474 175.497 58.0354C175.283 58.3127 175.177 58.7074 175.177 59.2194V59.2514H177.721ZM186.035 64.2754C185.928 64.2754 185.832 64.2381 185.747 64.1634C185.672 64.0781 185.635 63.9821 185.635 63.8754V53.4914C185.635 53.3741 185.672 53.2781 185.747 53.2034C185.822 53.1181 185.918 53.0754 186.035 53.0754H187.843C188.088 53.0754 188.27 53.1767 188.387 53.3794L192.163 59.3474V53.4914C192.163 53.3741 192.2 53.2781 192.275 53.2034C192.35 53.1181 192.446 53.0754 192.563 53.0754H194.595C194.712 53.0754 194.808 53.1181 194.883 53.2034C194.958 53.2781 194.995 53.3741 194.995 53.4914V63.8594C194.995 63.9767 194.958 64.0781 194.883 64.1634C194.808 64.2381 194.712 64.2754 194.595 64.2754H192.787C192.542 64.2754 192.36 64.1741 192.243 63.9714L188.483 58.2434V63.8754C188.483 63.9927 188.44 64.0887 188.355 64.1634C188.28 64.2381 188.184 64.2754 188.067 64.2754H186.035ZM200.99 64.4354C199.646 64.4354 198.611 64.1261 197.886 63.5074C197.171 62.8781 196.782 61.9874 196.718 60.8354C196.707 60.6967 196.702 60.4567 196.702 60.1154C196.702 59.7741 196.707 59.5341 196.718 59.3954C196.782 58.2647 197.182 57.3847 197.918 56.7554C198.665 56.1154 199.689 55.7954 200.99 55.7954C202.291 55.7954 203.31 56.1154 204.046 56.7554C204.793 57.3847 205.198 58.2647 205.262 59.3954C205.283 59.6727 205.294 59.9127 205.294 60.1154C205.294 60.3181 205.283 60.5581 205.262 60.8354C205.198 61.9874 204.803 62.8781 204.078 63.5074C203.363 64.1261 202.334 64.4354 200.99 64.4354ZM200.99 62.4194C201.427 62.4194 201.753 62.2861 201.966 62.0194C202.179 61.7421 202.302 61.3207 202.334 60.7554C202.345 60.6487 202.35 60.4354 202.35 60.1154C202.35 59.7954 202.345 59.5821 202.334 59.4754C202.302 58.9207 202.179 58.5047 201.966 58.2274C201.753 57.9501 201.427 57.8114 200.99 57.8114C200.553 57.8114 200.227 57.9501 200.014 58.2274C199.801 58.5047 199.678 58.9207 199.646 59.4754L199.63 60.1154L199.646 60.7554C199.678 61.3207 199.801 61.7421 200.014 62.0194C200.227 62.2861 200.553 62.4194 200.99 62.4194ZM208.904 64.2754C208.755 64.2754 208.638 64.2434 208.552 64.1794C208.478 64.1047 208.419 64.0034 208.376 63.8754L206.072 56.4674L206.04 56.3234C206.04 56.2167 206.078 56.1314 206.152 56.0674C206.227 55.9927 206.312 55.9554 206.408 55.9554H208.152C208.28 55.9554 208.387 55.9927 208.472 56.0674C208.558 56.1314 208.611 56.2061 208.632 56.2914L209.944 60.7234L211.336 56.3234C211.358 56.2274 211.411 56.1421 211.496 56.0674C211.582 55.9927 211.694 55.9554 211.832 55.9554H212.936C213.075 55.9554 213.187 55.9927 213.272 56.0674C213.358 56.1421 213.416 56.2274 213.448 56.3234L214.84 60.7234L216.136 56.2914C216.168 56.2061 216.222 56.1314 216.296 56.0674C216.382 55.9927 216.488 55.9554 216.616 55.9554H218.36C218.467 55.9554 218.552 55.9927 218.616 56.0674C218.691 56.1314 218.728 56.2167 218.728 56.3234C218.728 56.3767 218.723 56.4247 218.712 56.4674L216.392 63.8754C216.318 64.1421 216.147 64.2754 215.88 64.2754H214.36C214.094 64.2754 213.912 64.1421 213.816 63.8754L212.392 59.6194L210.952 63.8754C210.878 64.1421 210.702 64.2754 210.424 64.2754H208.904Z" fill="white"/>
<defs>
<filter id="filter0_f_1_277" x="0.0856934" y="0.0664062" width="319.829" height="168" filterUnits="userSpaceOnUse" color-interpolation-filters="sRGB">
<feFlood flood-opacity="0" result="BackgroundImageFix"/>
<feBlend mode="normal" in="SourceGraphic" in2="BackgroundImageFix" result="shape"/>
<feGaussianBlur stdDeviation="27" result="effect1_foregroundBlur_1_277"/>
</filter>
</defs>
</svg>
